<svg xmlns="http://www.w3.org/2000/svg" width="20" height="20" viewBox="0 0 20 20" fill="none">
<path fill-rule="evenodd" clip-rule="evenodd" d="M10.0389 18.3333C5.53497 18.3333 1.87074 14.5958 1.87074 9.99996C1.87074 5.40413 5.53497 1.66663 10.0389 1.66663C14.5428 1.66663 18.207 5.40413 18.207 9.99996C18.207 14.5958 14.5428 18.3333 10.0389 18.3333ZM10.0389 0C4.63404 0 0.237122 4.4875 0.237122 10C0.237122 15.5125 4.63404 20 10.0389 20C15.4438 20 19.8407 15.5125 19.8407 10C19.8407 4.4875 15.4438 0 10.0389 0Z" fill="#7A8FA6"/>
<path fill-rule="evenodd" clip-rule="evenodd" d="M14.2508 9.16668H10.8557V5.70418C10.8557 5.24168 10.4898 4.87085 10.0389 4.87085C9.58801 4.87085 9.22208 5.24168 9.22208 5.70418V9.16668H5.82698C5.37569 9.16668 5.01017 9.54168 5.01017 10C5.01017 10.4625 5.37569 10.8333 5.82698 10.8333H9.22208V14.2958C9.22208 14.7583 9.58801 15.1292 10.0389 15.1292C10.4898 15.1292 10.8557 14.7583 10.8557 14.2958V10.8333H14.2508C14.7021 10.8333 15.0676 10.4625 15.0676 10C15.0676 9.54168 14.7021 9.16668 14.2508 9.16668Z" fill="#7A8FA6"/>
</svg>