<svg xmlns="http://www.w3.org/2000/svg" width="15" height="19" viewBox="0 0 15 19" fill="none">
<path fill-rule="evenodd" clip-rule="evenodd" d="M3.04056 17.0615C2.25813 17.0615 1.62164 16.4527 1.62164 15.7043C1.62164 14.9559 2.25813 14.3472 3.04056 14.3472C3.82299 14.3472 4.45948 14.9559 4.45948 15.7043C4.45948 16.4527 3.82299 17.0615 3.04056 17.0615ZM10.3914 3.48233C10.7226 3.37764 10.9459 3.08295 10.9459 2.7456V0.775802C10.9459 0.527639 10.8207 0.291108 10.6091 0.147639C10.3978 0.000292125 10.1258 -0.0384834 9.87892 0.0390676L5.01405 1.59009C5.00757 1.59397 5.0023 1.59784 4.99581 1.60172C4.92527 1.62499 4.85878 1.65601 4.79878 1.69866C4.78824 1.70641 4.77932 1.71417 4.76919 1.72192C4.71649 1.7607 4.66946 1.80723 4.62851 1.85764C4.62203 1.86539 4.61432 1.87315 4.60824 1.8809C4.56649 1.93907 4.53446 2.00111 4.50973 2.06703C4.50405 2.08254 4.5 2.09805 4.49554 2.10968C4.47446 2.17948 4.45946 2.25315 4.45946 2.32682V13.1336C4.03541 12.9203 3.55297 12.7962 3.04054 12.7962C1.36378 12.7962 0 14.1029 0 15.7044C0 17.3097 1.36378 18.6125 3.04054 18.6125C4.7173 18.6125 6.08108 17.3097 6.08108 15.7044V4.85886L10.3914 3.48233Z" fill="#7A8FA6"/>
<path fill-rule="evenodd" clip-rule="evenodd" d="M13.7964 10.0704H12.1748V8.51938C12.1748 8.19754 11.9027 7.93774 11.5667 7.93774C11.231 7.93774 10.9586 8.19754 10.9586 8.51938V10.0704H9.33693C9.00125 10.0704 8.72882 10.3302 8.72882 10.652C8.72882 10.9739 9.00125 11.2337 9.33693 11.2337H10.9586V12.7847C10.9586 13.1065 11.231 13.3663 11.5667 13.3663C11.9027 13.3663 12.1748 13.1065 12.1748 12.7847V11.2337H13.7964C14.1325 11.2337 14.4045 10.9739 14.4045 10.652C14.4045 10.3302 14.1325 10.0704 13.7964 10.0704Z" fill="#7A8FA6"/>
</svg>