<svg xmlns="http://www.w3.org/2000/svg" width="20" height="20" viewBox="0 0 20 20" fill="none">
<path fill-rule="evenodd" clip-rule="evenodd" d="M9.91985 0C4.50641 0 0.118073 4.47917 0.118073 10C0.118073 15.525 4.50641 20 9.91985 20C15.3333 20 19.7216 15.525 19.7216 10C19.7216 4.47917 15.3333 0 9.91985 0ZM9.91988 1.66663C14.4238 1.66663 18.088 5.40413 18.088 9.99996C18.088 14.5958 14.4238 18.3333 9.91988 18.3333C5.41596 18.3333 1.75173 14.5958 1.75173 9.99996C1.75173 5.40413 5.41596 1.66663 9.91988 1.66663Z" fill="#343532"/>
<path fill-rule="evenodd" clip-rule="evenodd" d="M7.74962 9.39172L9.53844 10C9.72141 10.0625 9.86476 10.2084 9.92561 10.3959L10.5223 12.2209L12.0816 7.80005L7.74962 9.39172ZM10.4998 14.7542C10.4974 14.7542 10.4949 14.7542 10.4925 14.7542C10.2315 14.75 10.0012 14.5792 9.91866 14.3292L8.86006 11.0875L5.68551 10.0083C5.43761 9.92499 5.26975 9.68749 5.26649 9.42499C5.26363 9.15833 5.42617 8.91666 5.67163 8.82916L12.891 6.17499C13.1144 6.09166 13.364 6.14999 13.5318 6.32083C13.6997 6.49166 13.7556 6.74999 13.6752 6.97499L11.0761 14.3417C10.9887 14.5917 10.7579 14.7542 10.4998 14.7542Z" fill="#343532"/>
</svg>