<svg xmlns="http://www.w3.org/2000/svg" width="20" height="18" viewBox="0 0 20 18" fill="none">
<path fill-rule="evenodd" clip-rule="evenodd" d="M5.54295 1.84692C4.56318 1.84692 3.58382 2.22911 2.83807 2.99306C1.34657 4.52223 1.34657 7.00957 2.83807 8.53832L9.92272 15.7994L17.0041 8.54125C18.4956 7.01251 18.4956 4.52516 17.0041 2.99641C15.513 1.46767 13.0858 1.46767 11.5943 2.99641L10.5002 4.11785C10.1935 4.43139 9.65112 4.43223 9.34523 4.11785L8.24784 2.99306C7.50208 2.22911 6.52232 1.84692 5.54295 1.84692ZM9.92272 17.8204C9.71403 17.8204 9.50451 17.7388 9.34524 17.5751L1.6831 9.7221C-0.445516 7.54075 -0.445516 3.99098 1.6831 1.80921C3.81091 -0.372974 7.27461 -0.372555 9.40282 1.80921L9.92272 2.3421L10.439 1.81256C12.5676 -0.368788 16.0309 -0.369625 18.1591 1.81256C20.2877 3.99391 20.2877 7.54368 18.1591 9.72503L10.5002 17.5751C10.3409 17.7388 10.1318 17.8204 9.92272 17.8204Z" fill="#343532"/>
</svg>