<svg xmlns="http://www.w3.org/2000/svg" width="160" height="130" viewBox="0 0 160 130" fill="none">
<path d="M99.24 29.08C98.8453 29.08 98.5147 28.9573 98.248 28.712C97.992 28.456 97.864 28.1413 97.864 27.768C97.864 27.3947 97.992 27.0853 98.248 26.84C98.5147 26.584 98.8453 26.456 99.24 26.456C99.6347 26.456 99.96 26.584 100.216 26.84C100.483 27.0853 100.616 27.3947 100.616 27.768C100.616 28.1413 100.483 28.456 100.216 28.712C99.96 28.9573 99.6347 29.08 99.24 29.08ZM100.344 30.136V39H98.104V30.136H100.344ZM107.169 30.008C108.225 30.008 109.078 30.344 109.729 31.016C110.38 31.6773 110.705 32.6053 110.705 33.8V39H108.465V34.104C108.465 33.4 108.289 32.8613 107.937 32.488C107.585 32.104 107.105 31.912 106.497 31.912C105.878 31.912 105.388 32.104 105.025 32.488C104.673 32.8613 104.497 33.4 104.497 34.104V39H102.257V30.136H104.497V31.24C104.796 30.856 105.174 30.5573 105.633 30.344C106.102 30.12 106.614 30.008 107.169 30.008ZM124.711 27.832V39H122.471V31.736L119.479 39H117.783L114.775 31.736V39H112.535V27.832H115.079L118.631 36.136L122.183 27.832H124.711ZM134.994 30.136V39H132.738V37.88C132.45 38.264 132.071 38.568 131.602 38.792C131.143 39.0053 130.642 39.112 130.098 39.112C129.405 39.112 128.791 38.968 128.258 38.68C127.725 38.3813 127.303 37.9493 126.994 37.384C126.695 36.808 126.546 36.1253 126.546 35.336V30.136H128.786V35.016C128.786 35.72 128.962 36.264 129.314 36.648C129.666 37.0213 130.146 37.208 130.754 37.208C131.373 37.208 131.858 37.0213 132.21 36.648C132.562 36.264 132.738 35.72 132.738 35.016V30.136H134.994ZM140.296 39.144C139.571 39.144 138.92 39.016 138.344 38.76C137.768 38.4933 137.309 38.136 136.968 37.688C136.637 37.24 136.456 36.744 136.424 36.2H138.68C138.723 36.5413 138.888 36.824 139.176 37.048C139.475 37.272 139.843 37.384 140.28 37.384C140.707 37.384 141.037 37.2987 141.272 37.128C141.517 36.9573 141.64 36.7387 141.64 36.472C141.64 36.184 141.491 35.9707 141.192 35.832C140.904 35.6827 140.44 35.5227 139.8 35.352C139.139 35.192 138.595 35.0267 138.168 34.856C137.752 34.6853 137.389 34.424 137.08 34.072C136.781 33.72 136.632 33.2453 136.632 32.648C136.632 32.1573 136.771 31.7093 137.048 31.304C137.336 30.8987 137.741 30.5787 138.264 30.344C138.797 30.1093 139.421 29.992 140.136 29.992C141.192 29.992 142.035 30.2587 142.664 30.792C143.293 31.3147 143.64 32.024 143.704 32.92H141.56C141.528 32.568 141.379 32.2907 141.112 32.088C140.856 31.8747 140.509 31.768 140.072 31.768C139.667 31.768 139.352 31.8427 139.128 31.992C138.915 32.1413 138.808 32.3493 138.808 32.616C138.808 32.9147 138.957 33.144 139.256 33.304C139.555 33.4533 140.019 33.608 140.648 33.768C141.288 33.928 141.816 34.0933 142.232 34.264C142.648 34.4347 143.005 34.7013 143.304 35.064C143.613 35.416 143.773 35.8853 143.784 36.472C143.784 36.984 143.64 37.4427 143.352 37.848C143.075 38.2533 142.669 38.5733 142.136 38.808C141.613 39.032 141 39.144 140.296 39.144ZM146.459 29.08C146.064 29.08 145.733 28.9573 145.467 28.712C145.211 28.456 145.083 28.1413 145.083 27.768C145.083 27.3947 145.211 27.0853 145.467 26.84C145.733 26.584 146.064 26.456 146.459 26.456C146.853 26.456 147.179 26.584 147.435 26.84C147.701 27.0853 147.835 27.3947 147.835 27.768C147.835 28.1413 147.701 28.456 147.435 28.712C147.179 28.9573 146.853 29.08 146.459 29.08ZM147.563 30.136V39H145.323V30.136H147.563ZM148.9 34.568C148.9 33.6507 149.087 32.8507 149.46 32.168C149.833 31.4747 150.351 30.9413 151.012 30.568C151.673 30.184 152.431 29.992 153.284 29.992C154.383 29.992 155.289 30.2693 156.004 30.824C156.729 31.368 157.215 32.136 157.46 33.128H155.044C154.916 32.744 154.697 32.4453 154.388 32.232C154.089 32.008 153.716 31.896 153.268 31.896C152.628 31.896 152.121 32.1307 151.748 32.6C151.375 33.0587 151.188 33.7147 151.188 34.568C151.188 35.4107 151.375 36.0667 151.748 36.536C152.121 36.9947 152.628 37.224 153.268 37.224C154.175 37.224 154.767 36.8187 155.044 36.008H157.46C157.215 36.968 156.729 37.7307 156.004 38.296C155.279 38.8613 154.372 39.144 153.284 39.144C152.431 39.144 151.673 38.9573 151.012 38.584C150.351 38.2 149.833 37.6667 149.46 36.984C149.087 36.2907 148.9 35.4853 148.9 34.568Z" fill="#121B25"/>
<path d="M103.846 58.83H99.59L98.806 61H97.462L100.99 51.298H102.46L105.974 61H104.63L103.846 58.83ZM103.482 57.794L101.718 52.866L99.954 57.794H103.482ZM108.486 54.742C108.738 54.3033 109.111 53.9393 109.606 53.65C110.11 53.3513 110.693 53.202 111.356 53.202C112.037 53.202 112.653 53.3653 113.204 53.692C113.764 54.0187 114.202 54.4807 114.52 55.078C114.837 55.666 114.996 56.352 114.996 57.136C114.996 57.9107 114.837 58.6013 114.52 59.208C114.202 59.8147 113.764 60.286 113.204 60.622C112.653 60.958 112.037 61.126 111.356 61.126C110.702 61.126 110.124 60.9813 109.62 60.692C109.125 60.3933 108.747 60.0247 108.486 59.586V64.64H107.212V53.328H108.486V54.742ZM113.694 57.136C113.694 56.5573 113.577 56.0533 113.344 55.624C113.11 55.1947 112.793 54.868 112.392 54.644C112 54.42 111.566 54.308 111.09 54.308C110.623 54.308 110.189 54.4247 109.788 54.658C109.396 54.882 109.078 55.2133 108.836 55.652C108.602 56.0813 108.486 56.5807 108.486 57.15C108.486 57.7287 108.602 58.2373 108.836 58.676C109.078 59.1053 109.396 59.4367 109.788 59.67C110.189 59.894 110.623 60.006 111.09 60.006C111.566 60.006 112 59.894 112.392 59.67C112.793 59.4367 113.11 59.1053 113.344 58.676C113.577 58.2373 113.694 57.724 113.694 57.136ZM117.647 54.742C117.899 54.3033 118.272 53.9393 118.767 53.65C119.271 53.3513 119.854 53.202 120.517 53.202C121.198 53.202 121.814 53.3653 122.365 53.692C122.925 54.0187 123.363 54.4807 123.681 55.078C123.998 55.666 124.157 56.352 124.157 57.136C124.157 57.9107 123.998 58.6013 123.681 59.208C123.363 59.8147 122.925 60.286 122.365 60.622C121.814 60.958 121.198 61.126 120.517 61.126C119.863 61.126 119.285 60.9813 118.781 60.692C118.286 60.3933 117.908 60.0247 117.647 59.586V64.64H116.373V53.328H117.647V54.742ZM122.855 57.136C122.855 56.5573 122.738 56.0533 122.505 55.624C122.271 55.1947 121.954 54.868 121.553 54.644C121.161 54.42 120.727 54.308 120.251 54.308C119.784 54.308 119.35 54.4247 118.949 54.658C118.557 54.882 118.239 55.2133 117.997 55.652C117.763 56.0813 117.647 56.5807 117.647 57.15C117.647 57.7287 117.763 58.2373 117.997 58.676C118.239 59.1053 118.557 59.4367 118.949 59.67C119.35 59.894 119.784 60.006 120.251 60.006C120.727 60.006 121.161 59.894 121.553 59.67C121.954 59.4367 122.271 59.1053 122.505 58.676C122.738 58.2373 122.855 57.724 122.855 57.136ZM130.212 51.242V57.416C130.212 58.284 130.422 58.928 130.842 59.348C131.271 59.768 131.864 59.978 132.62 59.978C133.367 59.978 133.95 59.768 134.37 59.348C134.799 58.928 135.014 58.284 135.014 57.416V51.242H136.288V57.402C136.288 58.214 136.125 58.9 135.798 59.46C135.471 60.0107 135.028 60.4213 134.468 60.692C133.917 60.9627 133.297 61.098 132.606 61.098C131.915 61.098 131.29 60.9627 130.73 60.692C130.179 60.4213 129.741 60.0107 129.414 59.46C129.097 58.9 128.938 58.214 128.938 57.402V51.242H130.212ZM139.387 51.242V61H138.113V51.242H139.387ZM149.983 61L145.965 56.548V61H144.691V51.242H145.965V55.764L149.997 51.242H151.607L147.183 56.128L151.649 61H149.983ZM153.43 52.082C153.187 52.082 152.982 51.998 152.814 51.83C152.646 51.662 152.562 51.4567 152.562 51.214C152.562 50.9713 152.646 50.766 152.814 50.598C152.982 50.43 153.187 50.346 153.43 50.346C153.663 50.346 153.859 50.43 154.018 50.598C154.186 50.766 154.27 50.9713 154.27 51.214C154.27 51.4567 154.186 51.662 154.018 51.83C153.859 51.998 153.663 52.082 153.43 52.082ZM154.046 53.328V61H152.772V53.328H154.046ZM157.471 54.378V58.9C157.471 59.2733 157.55 59.5393 157.709 59.698C157.868 59.8473 158.143 59.922 158.535 59.922H159.473V61H158.325C157.616 61 157.084 60.8367 156.729 60.51C156.374 60.1833 156.197 59.6467 156.197 58.9V54.378H155.203V53.328H156.197V51.396H157.471V53.328H159.473V54.378H157.471Z" fill="#596675"/>
<g filter="url(#filter0_d)">
<rect x="27" y="20" width="50" height="50" rx="5" fill="url(#paint0_linear)"/>
</g>
<path fill-rule="evenodd" clip-rule="evenodd" d="M52.0682 35C46.658 35 42.2722 39.4792 42.2722 45C42.2722 50.525 46.658 55 52.0682 55C57.4784 55 61.8641 50.525 61.8641 45C61.8641 39.4792 57.4784 35 52.0682 35ZM52.0682 36.6667C56.5694 36.6667 60.2314 40.4042 60.2314 45C60.2314 49.5958 56.5694 53.3333 52.0682 53.3333C47.5669 53.3333 43.9049 49.5958 43.9049 45C43.9049 40.4042 47.5669 36.6667 52.0682 36.6667Z" fill="white"/>
<path fill-rule="evenodd" clip-rule="evenodd" d="M46.3257 44.1583C46.2771 44.1583 46.2269 44.1542 46.1776 44.1417C45.8494 44.0583 45.6494 43.7167 45.7314 43.3833C46.3159 40.9875 48.1367 39.1292 50.4837 38.5333C50.8127 38.4458 51.1437 38.65 51.2257 38.9875C51.3073 39.3208 51.1073 39.6625 50.7792 39.7458C48.8731 40.2292 47.3943 41.7375 46.9196 43.6833C46.8502 43.9708 46.6004 44.1583 46.3257 44.1583Z" fill="white"/>
<path fill-rule="evenodd" clip-rule="evenodd" d="M52.0682 43.8542C51.449 43.8542 50.9457 44.3667 50.9457 45C50.9457 45.6333 51.449 46.1458 52.0682 46.1458C52.6874 46.1458 53.1906 45.6333 53.1906 45C53.1906 44.3667 52.6874 43.8542 52.0682 43.8542ZM52.0682 47.8125C50.549 47.8125 49.3131 46.55 49.3131 45C49.3131 43.45 50.549 42.1875 52.0682 42.1875C53.5874 42.1875 54.8233 43.45 54.8233 45C54.8233 46.55 53.5874 47.8125 52.0682 47.8125Z" fill="white"/>
<defs>
<filter id="filter0_d" x="-13" y="0" width="130" height="130" filterUnits="userSpaceOnUse" color-interpolation-filters="sRGB">
<feFlood flood-opacity="0" result="BackgroundImageFix"/>
<feColorMatrix in="SourceAlpha" type="matrix" values="0 0 0 0 0 0 0 0 0 0 0 0 0 0 0 0 0 0 127 0" result="hardAlpha"/>
<feOffset dy="20"/>
<feGaussianBlur stdDeviation="20"/>
<feColorMatrix type="matrix" values="0 0 0 0 0.243137 0 0 0 0 0.333333 0 0 0 0 0.403922 0 0 0 0.2 0"/>
<feBlend mode="normal" in2="BackgroundImageFix" result="effect1_dropShadow"/>
<feBlend mode="normal" in="SourceGraphic" in2="effect1_dropShadow" result="shape"/>
</filter>
<linearGradient id="paint0_linear" x1="52" y1="0.287271" x2="12.5745" y2="50.2873" gradientUnits="userSpaceOnUse">
<stop stop-color="#FF5248"/>
<stop offset="1" stop-color="#FF02D0"/>
</linearGradient>
</defs>
</svg>