<svg xmlns="http://www.w3.org/2000/svg" width="18" height="20" viewBox="0 0 18 20" fill="none">
<path fill-rule="evenodd" clip-rule="evenodd" d="M8.858 1.66663C4.8768 1.66663 1.63732 4.96663 1.63732 9.02079C1.63732 10.6791 2.16864 12.2458 3.17397 13.55C3.24315 13.6375 3.29349 13.7416 3.32174 13.8541C3.68482 15.2708 3.63079 16.6416 3.16251 17.9541C4.10111 17.5958 4.84651 17.0208 5.41999 16.2166C5.63449 15.9125 6.01967 15.7916 6.36351 15.9208C7.16581 16.2208 8.00536 16.3708 8.858 16.3708C12.8421 16.3708 16.0828 13.075 16.0828 9.02079C16.0828 4.96663 12.8421 1.66663 8.858 1.66663ZM1.63652 20C1.35367 20 1.0876 19.85 0.937788 19.6C0.771598 19.325 0.778966 18.975 0.957027 18.7042C1.85388 17.3417 2.12281 15.9417 1.77611 14.4333C0.613594 12.8625 0 10.9958 0 9.02083C0 4.04583 3.97342 0 8.85802 0C13.7447 0 17.7201 4.04583 17.7201 9.02083C17.7201 13.9917 13.7447 18.0375 8.85802 18.0375C8.01193 18.0375 7.17688 17.9167 6.36803 17.675C5.24605 18.9833 3.68975 19.7625 1.7319 19.9958C1.69997 20 1.66804 20 1.63652 20Z" fill="#343532"/>
<path fill-rule="evenodd" clip-rule="evenodd" d="M10.481 8.39172H5.32137C4.98203 8.39172 4.70737 8.11256 4.70737 7.76672C4.70737 7.42089 4.98203 7.14172 5.32137 7.14172H10.481C10.8204 7.14172 11.095 7.42089 11.095 7.76672C11.095 8.11256 10.8204 8.39172 10.481 8.39172Z" fill="#343532"/>
<path fill-rule="evenodd" clip-rule="evenodd" d="M12.5277 10.8917H5.32137C4.98203 10.8917 4.70737 10.6126 4.70737 10.2667C4.70737 9.92089 4.98203 9.64172 5.32137 9.64172H12.5277C12.8671 9.64172 13.1417 9.92089 13.1417 10.2667C13.1417 10.6126 12.8671 10.8917 12.5277 10.8917Z" fill="#343532"/>
</svg>