<svg xmlns="http://www.w3.org/2000/svg" width="23" height="6" viewBox="0 0 23 6" fill="none">
<path fill-rule="evenodd" clip-rule="evenodd" d="M0 2.5238C0 1.14309 1.11929 0.0238037 2.5 0.0238037C3.88071 0.0238037 5 1.14309 5 2.5238C5 3.90452 3.88071 5.0238 2.5 5.0238C1.11929 5.0238 0 3.90452 0 2.5238ZM9 2.5238C9 1.14309 10.1193 0.0238037 11.5 0.0238037C12.8807 0.0238037 14 1.14309 14 2.5238C14 3.90452 12.8807 5.0238 11.5 5.0238C10.1193 5.0238 9 3.90452 9 2.5238ZM20.5 0.0238037C19.1193 0.0238037 18 1.14309 18 2.5238C18 3.90452 19.1193 5.0238 20.5 5.0238C21.8807 5.0238 23 3.90452 23 2.5238C23 1.14309 21.8807 0.0238037 20.5 0.0238037Z" fill="#7A8FA6"/>
</svg>