<svg xmlns="http://www.w3.org/2000/svg" width="17" height="27" viewBox="0 0 17 27" fill="none">
<path fill-rule="evenodd" clip-rule="evenodd" d="M2.19143 22.9281V4.07812L14.0542 13.5L2.19143 22.9281ZM15.9422 0.5C15.3552 0.5 14.8845 1.05714 14.8845 1.7381V11.1662L1.72602 0.716667C1.40341 0.456667 0.985597 0.431905 0.636538 0.642381C0.292767 0.859048 0.0759277 1.28 0.0759277 1.7381V25.2619C0.0759277 25.72 0.292767 26.141 0.636538 26.3576C0.789912 26.4505 0.964442 26.5 1.13368 26.5C1.33994 26.5 1.54621 26.4319 1.72602 26.2895L14.8845 15.84V25.2619C14.8845 25.949 15.3552 26.5 15.9422 26.5C16.524 26.5 17 25.949 17 25.2619V1.7381C17 1.05714 16.524 0.5 15.9422 0.5Z" fill="#7A8FA6"/>
</svg>