<svg xmlns="http://www.w3.org/2000/svg" width="20" height="20" viewBox="0 0 20 20" fill="none">
<path fill-rule="evenodd" clip-rule="evenodd" d="M4.04797 15.8677C4.5541 15.2204 4.97817 14.3579 5.03881 13.2571C5.03961 13.2424 5.04002 13.2273 5.04002 13.2122V7.29632C5.04002 4.3706 7.39764 1.99019 10.2953 1.99019C13.1931 1.99019 15.5507 4.3706 15.5507 7.29632V13.2122C15.5507 13.2273 15.5511 13.2424 15.5519 13.2571C15.6125 14.3579 16.0366 15.2204 16.5427 15.8677H4.04797ZM19.1218 15.9424C19.1037 15.9339 17.2845 15.0694 17.1677 13.1882V7.29632C17.1677 3.4702 14.0848 0.357544 10.2953 0.357544C6.50586 0.357544 3.42302 3.4702 3.42302 7.29632V13.1882C3.3078 15.0461 1.5404 15.9082 1.46885 15.9424C1.12321 16.1024 0.934828 16.4837 1.01608 16.8588C1.09734 17.2335 1.426 17.5004 1.806 17.5004H7.63171C7.75825 18.8722 8.90067 19.9494 10.2953 19.9494C11.69 19.9494 12.8325 18.8722 12.959 17.5004H18.7847C19.1647 17.5004 19.4934 17.2335 19.5746 16.8588C19.6559 16.4837 19.4675 16.1024 19.1218 15.9424Z" fill="#7A8FA6"/>
</svg>