<svg xmlns="http://www.w3.org/2000/svg" width="16" height="20" viewBox="0 0 16 20" fill="none">
<path fill-rule="evenodd" clip-rule="evenodd" d="M3.11505 18.3673C2.34259 18.3673 1.71421 17.7265 1.71421 16.9387C1.71421 16.1509 2.34259 15.5101 3.11505 15.5101C3.88751 15.5101 4.51589 16.1509 4.51589 16.9387C4.51589 17.7265 3.88751 18.3673 3.11505 18.3673ZM10.3722 4.07345C10.6992 3.96325 10.9197 3.65304 10.9197 3.29794V1.22447C10.9197 0.963246 10.796 0.714267 10.5871 0.563246C10.3786 0.408144 10.1104 0.367328 9.86628 0.448961L5.06341 2.08161C5.05701 2.0857 5.0518 2.08978 5.0454 2.09386C4.97576 2.11835 4.91012 2.151 4.85088 2.1959C4.84048 2.20406 4.83167 2.21223 4.82167 2.22039C4.76963 2.26121 4.72321 2.31019 4.68278 2.36325C4.67638 2.37141 4.66877 2.37957 4.66277 2.38774C4.62155 2.44896 4.58993 2.51427 4.56551 2.58365C4.55991 2.59998 4.55591 2.61631 4.5515 2.62855C4.53069 2.70202 4.51588 2.77957 4.51588 2.85712V14.2326C4.09723 14.0081 3.62095 13.8775 3.11505 13.8775C1.45966 13.8775 0.113251 15.253 0.113251 16.9388C0.113251 18.6286 1.45966 20 3.11505 20C4.77043 20 6.11684 18.6286 6.11684 16.9388V5.52243L10.3722 4.07345Z" fill="#343532"/>
<path fill-rule="evenodd" clip-rule="evenodd" d="M7.91788 8.67352C7.91788 9.0123 8.18644 9.28577 8.51824 9.28577H15.2222C15.554 9.28577 15.8226 9.0123 15.8226 8.67352C15.8226 8.33475 15.554 8.06128 15.2222 8.06128H8.51824C8.18644 8.06128 7.91788 8.33475 7.91788 8.67352Z" fill="#343532"/>
<path fill-rule="evenodd" clip-rule="evenodd" d="M15.2222 10.9183H8.51824C8.18644 10.9183 7.91788 11.1918 7.91788 11.5306C7.91788 11.8694 8.18644 12.1428 8.51824 12.1428H15.2222C15.554 12.1428 15.8226 11.8694 15.8226 11.5306C15.8226 11.1918 15.554 10.9183 15.2222 10.9183Z" fill="#343532"/>
<path fill-rule="evenodd" clip-rule="evenodd" d="M12.8208 13.7755H8.51824C8.18644 13.7755 7.91788 14.049 7.91788 14.3878C7.91788 14.7265 8.18644 15 8.51824 15H12.8208C13.1526 15 13.4212 14.7265 13.4212 14.3878C13.4212 14.049 13.1526 13.7755 12.8208 13.7755Z" fill="#343532"/>
</svg>