<svg xmlns="http://www.w3.org/2000/svg" width="16" height="22" viewBox="0 0 16 22" fill="none">
<path fill-rule="evenodd" clip-rule="evenodd" d="M6.21982 3.89581C6.21982 2.75915 7.11153 1.83331 8.20631 1.83331C9.30108 1.83331 10.1928 2.75915 10.1928 3.89581V9.85415C10.1928 10.9908 9.30108 11.9166 8.20631 11.9166C7.11153 11.9166 6.21982 10.9908 6.21982 9.85415V3.89581ZM8.20628 13.75C10.2766 13.75 11.9585 12.0083 11.9585 9.85417V3.89583C11.9585 1.74625 10.2766 0 8.20628 0C6.13151 0 4.45404 1.74625 4.45404 3.89583V9.85417C4.45404 12.0083 6.13151 13.75 8.20628 13.75Z" fill="#343532"/>
<path fill-rule="evenodd" clip-rule="evenodd" d="M15.49 9.85417C15.49 9.35 15.0928 8.9375 14.6072 8.9375C14.1172 8.9375 13.7243 9.35 13.7243 9.85417C13.7243 13.0121 11.2478 15.5833 8.20628 15.5833C5.16034 15.5833 2.68828 13.0121 2.68828 9.85417C2.68828 9.35 2.29098 8.9375 1.8054 8.9375C1.3154 8.9375 0.922516 9.35 0.922516 9.85417C0.922516 13.7133 3.72125 16.9033 7.3234 17.3571V21.0833C7.3234 21.5921 7.71628 22 8.20628 22C8.69187 22 9.08916 21.5921 9.08916 21.0833V17.3571C12.6869 16.9033 15.49 13.7133 15.49 9.85417Z" fill="#343532"/>
</svg>