<svg xmlns="http://www.w3.org/2000/svg" width="17" height="27" viewBox="0 0 17 27" fill="none">
<path fill-rule="evenodd" clip-rule="evenodd" d="M14.8086 22.9281L2.94162 13.5L14.8086 4.07812V22.9281ZM16.3613 0.642381C16.0155 0.431905 15.5966 0.456667 15.2724 0.716667L2.11551 11.1662V1.7381C2.11551 1.05714 1.64164 0.5 1.05775 0.5C0.473345 0.5 0 1.05714 0 1.7381V25.2619C0 25.949 0.473345 26.5 1.05775 26.5C1.64164 26.5 2.11551 25.949 2.11551 25.2619V15.84L15.2724 26.2895C15.4506 26.4319 15.6579 26.5 15.8663 26.5C16.0361 26.5 16.2064 26.4505 16.3613 26.3576C16.7078 26.141 16.9241 25.72 16.9241 25.2619V1.7381C16.9241 1.28 16.7078 0.859048 16.3613 0.642381Z" fill="#7A8FA6"/>
</svg>