<svg xmlns="http://www.w3.org/2000/svg" width="20" height="17" viewBox="0 0 20 17" fill="none">
<path fill-rule="evenodd" clip-rule="evenodd" d="M0.817342 9.3084C0.81775 9.3084 0.818158 9.3084 0.818158 9.3084C1.26877 9.3084 1.63408 8.95782 1.63448 8.52059L1.63693 6.05476C1.63775 4.96759 2.55326 4.08525 3.67775 4.08525H16.8067L16.1304 4.73913C15.8112 5.04637 15.8112 5.54663 16.1304 5.85387C16.2896 6.0075 16.4986 6.08234 16.7075 6.08234C16.9161 6.08234 17.1255 6.0075 17.2847 5.85387L19.3304 3.88042C19.4941 3.73468 19.5986 3.52985 19.5986 3.29745C19.5986 3.06898 19.4941 2.86415 19.3304 2.71841L17.2847 0.744959C16.9659 0.437715 16.4488 0.437715 16.1304 0.744959C15.8112 1.0522 15.8112 1.54852 16.1304 1.8597L16.8067 2.50964H3.67775C1.65408 2.50964 0.00591303 4.10101 0.00428038 6.05083L0.0018314 8.52059C0.00142323 8.95389 0.366729 9.3084 0.817342 9.3084Z" fill="#7A8FA6"/>
<path fill-rule="evenodd" clip-rule="evenodd" d="M18.7831 7.62244C18.7826 7.62244 18.7826 7.62244 18.7822 7.62244C18.332 7.62244 17.9663 7.97695 17.9659 8.41024L17.9635 10.88C17.9626 11.9632 17.0471 12.8456 15.9226 12.8456H2.79367L3.4704 12.1956C3.78918 11.8884 3.78918 11.3881 3.4704 11.0809C3.15163 10.7737 2.63448 10.7737 2.31571 11.0809L0.269994 13.0544C0.106321 13.2001 0.00183105 13.4049 0.00183105 13.6334C0.00183105 13.8658 0.106321 14.0706 0.269994 14.2164L2.31571 16.1898C2.4753 16.3434 2.68428 16.4222 2.89285 16.4222C3.10183 16.4222 3.31081 16.3434 3.4704 16.1898C3.78918 15.8826 3.78918 15.3823 3.4704 15.0751L2.79367 14.4212H15.9226C17.9463 14.4212 19.5945 12.8338 19.5961 10.88L19.5986 8.41418C19.599 7.97695 19.2341 7.62638 18.7831 7.62244Z" fill="#7A8FA6"/>
<path fill-rule="evenodd" clip-rule="evenodd" d="M10.6774 11.0731C11.0158 11.0731 11.2896 10.8091 11.2896 10.4822V6.44864C11.2896 6.21623 11.1451 6.00353 10.9219 5.90899C10.6986 5.81445 10.4386 5.85778 10.2602 6.01534L8.50596 7.59095C8.25861 7.81548 8.24474 8.18969 8.47494 8.42603C8.70555 8.66631 9.0929 8.68206 9.34025 8.45754L10.0651 7.8076V10.4822C10.0651 10.8091 10.3394 11.0731 10.6774 11.0731Z" fill="#7A8FA6"/>
</svg>