<svg xmlns="http://www.w3.org/2000/svg" width="20" height="20" viewBox="0 0 20 20" fill="none">
<path fill-rule="evenodd" clip-rule="evenodd" d="M1.63265 8.48693C1.63265 4.90489 4.54694 1.99019 8.12898 1.99019C11.7114 1.99019 14.6257 4.90489 14.6257 8.48693C14.6257 12.0694 11.7114 14.9837 8.12898 14.9837C4.54694 14.9837 1.63265 12.0694 1.63265 8.48693ZM19.3522 18.5559L14.4245 13.6282C15.5686 12.2269 16.2584 10.438 16.2584 8.48693C16.2584 3.99714 12.6188 0.357544 8.12898 0.357544C3.63959 0.357544 0 3.99714 0 8.48693C0 12.9767 3.63959 16.6163 8.12898 16.6163C10.08 16.6163 11.8694 15.9277 13.2702 14.7824L18.1971 19.7106C18.3563 19.8698 18.5686 19.9494 18.7767 19.9494C18.9849 19.9494 19.1931 19.8698 19.3522 19.7106C19.6706 19.3918 19.6706 18.8747 19.3522 18.5559Z" fill="#7A8FA6"/>
</svg>