<svg xmlns="http://www.w3.org/2000/svg" width="20" height="20" viewBox="0 0 20 20" fill="none">
<path fill-rule="evenodd" clip-rule="evenodd" d="M3.28271 14.086C3.28271 14.086 3.28271 14.086 3.28271 14.0864C3.28271 14.086 3.28271 14.086 3.28271 14.086ZM3.29883 14.1095V14.1135C3.29883 14.1139 3.29883 14.1139 3.29883 14.1139C3.29883 14.1139 3.29883 14.1123 3.29883 14.1095ZM9.06764 18.0502C9.87211 18.1763 10.721 18.1763 11.5255 18.0502V16.6709C11.5255 16.3159 11.7559 16.0026 12.0955 15.8979C12.9566 15.6327 13.7408 15.18 14.424 14.5526C14.6827 14.3124 15.0708 14.2704 15.3781 14.4491L16.5747 15.148C16.8091 14.8634 17.0193 14.5635 17.2093 14.251C17.2579 14.1653 17.3104 14.0731 17.367 13.9805C17.5368 13.6741 17.6904 13.3539 17.8198 13.0249L16.6191 12.3255C16.3159 12.1468 16.1583 11.7895 16.2391 11.4442C16.3483 10.9749 16.4049 10.5092 16.4049 10.0597C16.4049 9.62064 16.3523 9.16625 16.2472 8.70985C16.1704 8.36421 16.3281 8.00766 16.6353 7.831L17.8359 7.14012C17.6985 6.77751 17.5287 6.42419 17.3347 6.08461C17.3306 6.07895 17.3144 6.04702 17.3104 6.04136C17.3023 6.02761 17.2862 6.00134 17.2781 5.98678C17.08 5.64802 16.8576 5.32138 16.607 5.01132L15.4064 5.70219C15.0991 5.87885 14.711 5.83478 14.4523 5.59304C13.7732 4.96159 12.9566 4.487 12.0955 4.2214C11.7559 4.1167 11.5255 3.8034 11.5255 3.44846V2.06955C10.721 1.94342 9.87211 1.94342 9.06764 2.06955V3.44846C9.06764 3.8034 8.83317 4.1167 8.4936 4.2214C7.63253 4.487 6.84828 4.93976 6.16913 5.56717C5.90636 5.80729 5.51828 5.84934 5.21105 5.67066L4.01445 4.9717C3.78402 5.25629 3.57381 5.55666 3.38381 5.86874C3.14126 6.25966 2.93913 6.66998 2.77339 7.09485L3.96998 7.79421C4.27722 7.97289 4.43083 8.33025 4.34998 8.67549C4.24083 9.14483 4.18828 9.61053 4.18828 10.0597C4.18828 10.4991 4.24083 10.9535 4.3419 11.4099C4.41871 11.7555 4.26509 12.1121 3.95785 12.2887L2.75317 12.9796C2.87445 13.2872 3.01594 13.5949 3.17764 13.8993L3.29488 14.1046C3.29892 14.1139 3.307 14.1236 3.31105 14.1329C3.50913 14.4717 3.73551 14.7983 3.98211 15.1084L5.18679 14.4175C5.49402 14.2409 5.87807 14.2849 6.14083 14.5267C6.81594 15.1581 7.63253 15.6327 8.4936 15.8979C8.83317 16.0026 9.06764 16.3159 9.06764 16.6709V18.0502ZM10.2966 19.7618C9.53659 19.7618 8.78871 19.6733 8.06509 19.4982C7.7053 19.4101 7.45062 19.0859 7.45062 18.7127V17.2421C6.75125 16.9635 6.09231 16.5783 5.49401 16.1049L4.21251 16.8419C3.88911 17.0286 3.47676 16.9676 3.22208 16.6943C2.72484 16.1643 2.28825 15.5834 1.92846 14.9669C1.90824 14.9378 1.88803 14.9063 1.87186 14.8683L1.75463 14.6698C1.43122 14.0622 1.17654 13.4477 0.998663 12.8357C0.893556 12.4771 1.05122 12.0943 1.37462 11.9083L2.65208 11.1726C2.59952 10.7982 2.57123 10.4259 2.57123 10.0597C2.57123 9.67966 2.59952 9.29239 2.66016 8.90228L1.38271 8.15683C1.0593 7.96845 0.909727 7.58279 1.01483 7.22462C1.2493 6.45209 1.58079 5.7127 2.00122 5.02749C2.35697 4.4397 2.78144 3.88466 3.26251 3.38055C3.52123 3.1093 3.92953 3.05028 4.25294 3.23947L5.53444 3.98492C6.12061 3.52043 6.76338 3.14932 7.45062 2.87685V1.40698C7.45062 1.03385 7.7053 0.709639 8.06509 0.621512C9.50829 0.271426 11.0849 0.271426 12.5241 0.621512C12.8879 0.709639 13.1426 1.03385 13.1426 1.40698V2.87766C13.8379 3.15619 14.5009 3.54104 15.0951 4.01483L16.3766 3.27787C16.7041 3.0907 17.1124 3.15215 17.3711 3.42543C17.8683 3.95662 18.3049 4.53875 18.6647 5.15645C18.689 5.19445 18.7132 5.23366 18.7335 5.27247C19.1013 5.91524 19.3883 6.58832 19.5905 7.28283C19.6956 7.64141 19.542 8.02505 19.2186 8.21141L17.9371 8.94715C17.9937 9.32149 18.022 9.69381 18.022 10.0597C18.022 10.4401 17.9896 10.8273 17.929 11.2175L19.2064 11.9629C19.5298 12.1513 19.6835 12.5361 19.5743 12.8939C19.3803 13.546 19.1094 14.1802 18.7698 14.7802C18.7092 14.8885 18.6526 14.9887 18.592 15.0854C18.2322 15.68 17.8077 16.2355 17.3307 16.7388C17.072 17.0104 16.6596 17.0686 16.3362 16.8799L15.0587 16.1348C14.4685 16.5993 13.8298 16.9704 13.1426 17.2429V18.7127C13.1426 19.0859 12.8879 19.4101 12.5241 19.4982C11.8045 19.6733 11.0526 19.7618 10.2966 19.7618Z" fill="#7A8FA6"/>
<path fill-rule="evenodd" clip-rule="evenodd" d="M10.2965 8.05536C9.18884 8.05536 8.29138 8.95483 8.29138 10.0597C8.29138 11.1649 9.18884 12.0644 10.2965 12.0644C11.4001 12.0644 12.3016 11.1649 12.3016 10.0597C12.3016 8.95483 11.4001 8.05536 10.2965 8.05536ZM10.2965 13.2771C8.52182 13.2771 7.07861 11.8339 7.07861 10.0597C7.07861 8.28578 8.52182 6.84259 10.2965 6.84259C12.0712 6.84259 13.5144 8.28578 13.5144 10.0597C13.5144 11.8339 12.0712 13.2771 10.2965 13.2771Z" fill="#7A8FA6"/>
</svg>