<svg xmlns="http://www.w3.org/2000/svg" width="613" height="23" viewBox="0 0 613 23" fill="none">
<path d="M584.811 8.16C584.886 7.348 585.222 6.71333 585.819 6.256C586.426 5.78933 587.196 5.556 588.129 5.556C589.072 5.556 589.814 5.80333 590.355 6.298C590.906 6.79267 591.181 7.42267 591.181 8.188C591.181 8.73867 591.027 9.224 590.719 9.644C590.411 10.0547 590.015 10.3347 589.529 10.484V10.554C590.099 10.7127 590.547 11.0207 590.873 11.478C591.2 11.9353 591.363 12.5467 591.363 13.312C591.363 14.0773 591.079 14.726 590.509 15.258C589.949 15.79 589.17 16.056 588.171 16.056C587.182 16.056 586.37 15.804 585.735 15.3C585.101 14.796 584.751 14.082 584.685 13.158H585.889C585.936 13.69 586.155 14.1287 586.547 14.474C586.949 14.81 587.476 14.978 588.129 14.978C588.792 14.978 589.296 14.8053 589.641 14.46C589.996 14.1053 590.173 13.6527 590.173 13.102C590.173 12.3647 589.94 11.842 589.473 11.534C589.007 11.226 588.293 11.072 587.331 11.072H586.995V10.008H587.345C589.1 9.98933 589.977 9.42467 589.977 8.314C589.977 7.80067 589.809 7.39467 589.473 7.096C589.147 6.79733 588.685 6.648 588.087 6.648C587.49 6.648 587.019 6.788 586.673 7.068C586.328 7.33867 586.118 7.70267 586.043 8.16H584.811ZM594.744 9.21C594.744 9.434 594.664 9.62533 594.506 9.784C594.347 9.94267 594.151 10.022 593.918 10.022C593.694 10.022 593.502 9.94267 593.344 9.784C593.185 9.62533 593.106 9.434 593.106 9.21C593.106 8.986 593.185 8.79467 593.344 8.636C593.502 8.47733 593.694 8.398 593.918 8.398C594.151 8.398 594.347 8.47733 594.506 8.636C594.664 8.79467 594.744 8.986 594.744 9.21ZM594.744 15.188C594.744 15.412 594.664 15.6033 594.506 15.762C594.347 15.9207 594.151 16 593.918 16C593.694 16 593.502 15.9207 593.344 15.762C593.185 15.6033 593.106 15.412 593.106 15.188C593.106 14.9547 593.185 14.7587 593.344 14.6C593.502 14.4413 593.694 14.362 593.918 14.362C594.151 14.362 594.347 14.4413 594.506 14.6C594.664 14.7587 594.744 14.9547 594.744 15.188ZM601.72 12.64V7.096L597.954 12.64H601.72ZM601.678 16V13.732H596.47V12.836L601.286 5.92H602.91V12.64H604.268V13.732H602.91V16H601.678ZM606.779 8.86C606.779 9.52267 606.966 10.0593 607.339 10.47C607.722 10.8807 608.259 11.086 608.949 11.086C609.649 11.086 610.177 10.89 610.531 10.498C610.886 10.106 611.063 9.56467 611.063 8.874C611.063 8.18333 610.872 7.63733 610.489 7.236C610.116 6.82533 609.598 6.62 608.935 6.62C608.273 6.62 607.745 6.82533 607.353 7.236C606.971 7.64667 606.779 8.188 606.779 8.86ZM609.089 14.908C609.836 14.908 610.382 14.6233 610.727 14.054C611.073 13.4753 611.245 12.4673 611.245 11.03C611.003 11.4033 610.662 11.688 610.223 11.884C609.794 12.08 609.327 12.178 608.823 12.178C607.899 12.178 607.125 11.8887 606.499 11.31C605.883 10.722 605.575 9.91933 605.575 8.902C605.575 7.88467 605.869 7.07267 606.457 6.466C607.045 5.85 607.862 5.542 608.907 5.542C610.13 5.542 611.007 5.962 611.539 6.802C612.071 7.63267 612.337 8.944 612.337 10.736C612.337 12.5187 612.09 13.8393 611.595 14.698C611.11 15.5567 610.251 15.986 609.019 15.986C608.077 15.986 607.339 15.7387 606.807 15.244C606.275 14.7493 605.958 14.1287 605.855 13.382H607.017C607.232 14.3993 607.923 14.908 609.089 14.908Z" fill="#121B25"/>
<rect x="45" y="10" width="518" height="2" rx="1" fill="#E5E7EF"/>
<rect x="45" y="10" width="270" height="2" rx="1" fill="#121B25"/>
<path d="M1.876 16V7.194H0.728V6.06H3.122V16H1.876ZM7.02605 9.21C7.02605 9.434 6.94671 9.62533 6.78805 9.784C6.62938 9.94267 6.43338 10.022 6.20005 10.022C5.97605 10.022 5.78471 9.94267 5.62605 9.784C5.46738 9.62533 5.38805 9.434 5.38805 9.21C5.38805 8.986 5.46738 8.79467 5.62605 8.636C5.78471 8.47733 5.97605 8.398 6.20005 8.398C6.43338 8.398 6.62938 8.47733 6.78805 8.636C6.94671 8.79467 7.02605 8.986 7.02605 9.21ZM7.02605 15.188C7.02605 15.412 6.94671 15.6033 6.78805 15.762C6.62938 15.9207 6.43338 16 6.20005 16C5.97605 16 5.78471 15.9207 5.62605 15.762C5.46738 15.6033 5.38805 15.412 5.38805 15.188C5.38805 14.9547 5.46738 14.7587 5.62605 14.6C5.78471 14.4413 5.97605 14.362 6.20005 14.362C6.43338 14.362 6.62938 14.4413 6.78805 14.6C6.94671 14.7587 7.02605 14.9547 7.02605 15.188ZM9.38266 5.766H15.4447V6.872H10.5587V10.078C10.764 9.77 11.0767 9.51333 11.4967 9.308C11.9167 9.10267 12.3927 9 12.9247 9C13.466 9 13.956 9.10267 14.3947 9.308C14.8427 9.504 15.188 9.77467 15.4307 10.12C15.888 10.792 16.1167 11.5573 16.1167 12.416C16.1167 13.4707 15.8227 14.334 15.2347 15.006C14.6467 15.6687 13.8207 16 12.7567 16C11.702 16 10.8713 15.7527 10.2647 15.258C9.66732 14.7633 9.29399 14.11 9.14466 13.298H10.3627C10.4933 13.802 10.7593 14.1987 11.1607 14.488C11.5713 14.7773 12.108 14.922 12.7707 14.922C13.4427 14.922 13.9653 14.698 14.3387 14.25C14.7213 13.802 14.9127 13.2 14.9127 12.444C14.9127 11.688 14.7213 11.1093 14.3387 10.708C13.9653 10.2973 13.4053 10.092 12.6587 10.092C12.1547 10.092 11.7207 10.2227 11.3567 10.484C10.9927 10.7453 10.722 11.1 10.5447 11.548H9.38266V5.766ZM17.2557 5.808H24.0037V6.76L19.9997 16H18.5997L22.7857 6.886H17.2557V5.808Z" fill="#121B25"/>
</svg>