<svg xmlns="http://www.w3.org/2000/svg" width="20" height="20" viewBox="0 0 20 20" fill="none">
<path fill-rule="evenodd" clip-rule="evenodd" d="M3.38538 15.4167H4.54076V12.5H3.38538V15.4167ZM5.35757 17.0834H2.56855C2.11726 17.0834 1.75174 16.7125 1.75174 16.25V11.6667C1.75174 11.2084 2.11726 10.8334 2.56855 10.8334H5.35757C5.80845 10.8334 6.17438 11.2084 6.17438 11.6667V16.25C6.17438 16.7125 5.80845 17.0834 5.35757 17.0834Z" fill="#343532"/>
<path fill-rule="evenodd" clip-rule="evenodd" d="M9.34198 15.4166H10.4974V7.08325H9.34198V15.4166ZM11.3142 17.0833H8.52516C8.07428 17.0833 7.70834 16.7125 7.70834 16.25V6.24996C7.70834 5.79163 8.07428 5.41663 8.52516 5.41663H11.3142C11.7655 5.41663 12.131 5.79163 12.131 6.24996V16.25C12.131 16.7125 11.7655 17.0833 11.3142 17.0833Z" fill="#343532"/>
<path fill-rule="evenodd" clip-rule="evenodd" d="M15.299 15.4166H16.4544V1.66663H15.299V15.4166ZM17.2712 17.0833H14.4822C14.0313 17.0833 13.6654 16.7125 13.6654 16.25V0.833333C13.6654 0.375 14.0313 0 14.4822 0H17.2712C17.7221 0 18.088 0.375 18.088 0.833333V16.25C18.088 16.7125 17.7221 17.0833 17.2712 17.0833Z" fill="#343532"/>
<path fill-rule="evenodd" clip-rule="evenodd" d="M18.9048 20H0.934887C0.484006 20 0.118073 19.6292 0.118073 19.1667C0.118073 18.7084 0.484006 18.3334 0.934887 18.3334H18.9048C19.3557 18.3334 19.7216 18.7084 19.7216 19.1667C19.7216 19.6292 19.3557 20 18.9048 20Z" fill="#343532"/>
</svg>