<svg xmlns="http://www.w3.org/2000/svg" width="20" height="14" viewBox="0 0 20 14" fill="none">
<path fill-rule="evenodd" clip-rule="evenodd" d="M1.63452 9.32926H5.30799C5.45901 9.32926 5.60717 9.3662 5.73575 9.44009L9.79779 11.7011V2.52409L5.73575 4.78509C5.60717 4.85898 5.45901 4.89592 5.30799 4.89592H1.63452V9.32926ZM10.6141 13.7626C10.4655 13.7626 10.3173 13.7257 10.1863 13.6518L5.07693 10.8071H0.818158C0.367545 10.8071 0.00183105 10.4783 0.00183105 10.0682V4.15707C0.00183105 3.75068 0.367545 3.41818 0.818158 3.41818H5.07693L10.1863 0.573457C10.4377 0.433068 10.7541 0.425679 11.0124 0.558679C11.2704 0.687985 11.4304 0.935513 11.4304 1.20151V13.0237C11.4304 13.2934 11.2704 13.5373 11.0124 13.6703C10.8884 13.7331 10.7512 13.7626 10.6141 13.7626Z" fill="#7A8FA6"/>
<path fill-rule="evenodd" clip-rule="evenodd" d="M17.1284 11.7158C16.9717 11.7158 16.815 11.6604 16.6954 11.5532C16.4562 11.3389 16.4562 10.988 16.6954 10.77C17.7746 9.79467 18.3693 8.49422 18.3693 7.1125C18.3693 5.73078 17.7746 4.43403 16.6954 3.455C16.4562 3.24072 16.4562 2.88975 16.6954 2.67178C16.9346 2.45381 17.3223 2.45381 17.5615 2.67178C18.8717 3.8577 19.5937 5.43522 19.5937 7.1125C19.5937 8.78978 18.8717 10.3673 17.5615 11.5532C17.4419 11.6604 17.2852 11.7158 17.1284 11.7158Z" fill="#7A8FA6"/>
<path fill-rule="evenodd" clip-rule="evenodd" d="M15.1079 9.88714C14.9512 9.88714 14.7945 9.83172 14.6749 9.72458C14.4357 9.5103 14.4357 9.15933 14.6749 8.94136C15.2145 8.45369 15.512 7.80347 15.512 7.11261C15.512 6.42175 15.2145 5.77153 14.6749 5.28386C14.4357 5.06958 14.4357 4.71861 14.6749 4.50064C14.9141 4.28267 15.3014 4.28267 15.5406 4.50064C16.3116 5.19889 16.7365 6.12619 16.7365 7.11261C16.7365 8.09903 16.3116 9.02633 15.5406 9.72458C15.421 9.83172 15.2647 9.88714 15.1079 9.88714Z" fill="#7A8FA6"/>
</svg>